<?xml version="1.0" encoding="utf-8"?>
<svg version="1.2" baseProfile="tiny" id="Layer_1" xmlns="http://www.w3.org/2000/svg" xmlns:xlink="http://www.w3.org/1999/xlink"
	 x="0px" y="0px" width="78.8px" height="159.6px" viewBox="0 0 78.8 159.6" xml:space="preserve">
<g>
	<path fill="#FFFFFF" d="M39.4,0c0,0-30.2,48.4-37.7,88.6c-5.3,28.7,0.9,70.9,37.7,70.9c36.9,0,43.1-42.3,37.7-70.9
		C69.6,48.4,39.4,0,39.4,0z"/>
	<path fill="#88A6CF" d="M39.8,8.6c0,0-27.3,43.7-34.1,80c-4.8,25.9,0.8,64,34.1,64c33.3,0,38.9-38.1,34.1-64
		C67.1,52.3,39.8,8.6,39.8,8.6z"/>
	<path fill="#FFFFFF" d="M10.5,98.6l28.3,47.3C8,142.1,10.5,98.6,10.5,98.6z"/>
</g>
</svg>
